<?xml version="1.0" encoding="UTF-8" standalone="no"?>
<!-- Created with Inkscape (http://www.inkscape.org/) -->

<svg
   width="18.062223mm"
   height="18.062223mm"
   viewBox="0 0 18.062223 18.062223"
   version="1.1"
   id="svg5"
   xml:space="preserve"
   inkscape:version="1.2.2 (b0a8486541, 2022-12-01)"
   sodipodi:docname="tilew.svg"
   xmlns:inkscape="http://www.inkscape.org/namespaces/inkscape"
   xmlns:sodipodi="http://sodipodi.sourceforge.net/DTD/sodipodi-0.dtd"
   xmlns="http://www.w3.org/2000/svg"
   xmlns:svg="http://www.w3.org/2000/svg"><sodipodi:namedview
     id="namedview7"
     pagecolor="#505050"
     bordercolor="#eeeeee"
     borderopacity="1"
     inkscape:showpageshadow="0"
     inkscape:pageopacity="0"
     inkscape:pagecheckerboard="0"
     inkscape:deskcolor="#505050"
     inkscape:document-units="mm"
     showgrid="false"
     inkscape:zoom="7.319248"
     inkscape:cx="33.473384"
     inkscape:cy="25.617386"
     inkscape:window-width="1266"
     inkscape:window-height="1362"
     inkscape:window-x="2568"
     inkscape:window-y="38"
     inkscape:window-maximized="0"
     inkscape:current-layer="layer1" /><defs
     id="defs2" /><g
     inkscape:label="Layer 1"
     inkscape:groupmode="layer"
     id="layer1"
     transform="translate(-32.901703,-250.08476)"><path
       style="fill:#ebdbb2;stroke-width:0.282222;stroke:#ebdbb2;stroke-opacity:1;fill-opacity:1"
       d="m 34.030592,259.11587 v -7.90222 h 2.257778 2.257778 v 7.90222 7.90222 H 36.28837 34.030592 Z m 5.644445,5.64445 v -2.25778 h 2.257777 2.257778 v 2.25778 2.25777 h -2.257778 -2.257777 z m 5.644444,0 v -2.25778 h 2.257778 2.257778 v 2.25778 2.25777 h -2.257778 -2.257778 z m -5.644444,-5.64445 v -2.25778 h 2.257777 2.257778 v 2.25778 2.25778 h -2.257778 -2.257777 z m 5.644444,0 v -2.25778 h 2.257778 2.257778 v 2.25778 2.25778 h -2.257778 -2.257778 z m -5.644444,-5.64444 v -2.25778 h 2.257777 2.257778 v 2.25778 2.25777 h -2.257778 -2.257777 z m 5.644444,0 v -2.25778 h 2.257778 2.257778 v 2.25778 2.25777 h -2.257778 -2.257778 z"
       id="path960" /></g></svg>
